# xmcd
#
# Track frame offsets:
#	150
#	12777
#	26625
#	40465
#	57382
#	72877
#	84590
#	99605
#	112502
#	128037
#	142547
#	155402
#
# Disc length: 2274 seconds
#
# Revision: 1
# Processed by: cddbd v1.5.1PL0 Copyright (c) Steve Scherf et al.
# Submitted via: EasyCDDAExtractor 6.0.0.1
#
DISCID=8e08e00c
DTITLE=Eigil Lindahl and The Buds
DYEAR=1900
DGENRE=Country
TTITLE0=Two Times With Me
TTITLE1=What Kind Of Fool
TTITLE2=Life Of A Countryboy
TTITLE3=No Love At All
TTITLE4=Where Fools Are Kings
TTITLE5=Love's Gotta Hold You
TTITLE6=Loving All Night
TTITLE7=A Hucker And A Trucker
TTITLE8=Hanging At Your Lifeline
TTITLE9=Can't You See I'm Dying
TTITLE10=Keep On Walking
TTITLE11=Please Don't Leave Me
EXTD=
EXTT0=
EXTT1=
EXTT2=
EXTT3=
EXTT4=
EXTT5=
EXTT6=
EXTT7=
EXTT8=
EXTT9=
EXTT10=
EXTT11=
PLAYORDER=
